<svg width="32" height="33" viewBox="0 0 32 33" fill="none" xmlns="http://www.w3.org/2000/svg">
<path d="M24.6667 21.7988H18.2196C18.0545 21.7988 17.8963 21.8644 17.7796 21.9811C17.6629 22.0978 17.5973 22.2561 17.5973 22.4211C17.5973 22.5862 17.6629 22.7445 17.7796 22.8612C17.8963 22.9779 18.0545 23.0434 18.2196 23.0434H24.6667C24.8317 23.0434 24.99 22.9779 25.1067 22.8612C25.2234 22.7445 25.289 22.5862 25.289 22.4211C25.289 22.2561 25.2234 22.0978 25.1067 21.9811C24.99 21.8644 24.8317 21.7988 24.6667 21.7988Z" fill="white"/>
<path d="M24.6667 19.3097H18.2196C18.0545 19.3097 17.8963 19.3753 17.7796 19.492C17.6629 19.6087 17.5973 19.767 17.5973 19.932C17.5973 20.097 17.6629 20.2553 17.7796 20.372C17.8963 20.4887 18.0545 20.5543 18.2196 20.5543H24.6667C24.8317 20.5543 24.99 20.4887 25.1067 20.372C25.2234 20.2553 25.289 20.097 25.289 19.932C25.289 19.767 25.2234 19.6087 25.1067 19.492C24.99 19.3753 24.8317 19.3097 24.6667 19.3097Z" fill="white"/>
<path d="M24.6667 12.6718H18.2196C18.0545 12.6718 17.8963 12.7373 17.7796 12.854C17.6629 12.9707 17.5973 13.129 17.5973 13.2941C17.5973 13.4591 17.6629 13.6174 17.7796 13.7341C17.8963 13.8508 18.0545 13.9164 18.2196 13.9164H24.6667C24.8317 13.9164 24.99 13.8508 25.1067 13.7341C25.2234 13.6174 25.289 13.4591 25.289 13.2941C25.289 13.129 25.2234 12.9707 25.1067 12.854C24.99 12.7373 24.8317 12.6718 24.6667 12.6718Z" fill="white"/>
<path d="M24.6667 10.1825H18.2196C18.0545 10.1825 17.8963 10.2481 17.7796 10.3648C17.6629 10.4815 17.5973 10.6398 17.5973 10.8048C17.5973 10.9698 17.6629 11.1281 17.7796 11.2448C17.8963 11.3615 18.0545 11.4271 18.2196 11.4271H24.6667C24.8317 11.4271 24.99 11.3615 25.1067 11.2448C25.2234 11.1281 25.289 10.9698 25.289 10.8048C25.289 10.6398 25.2234 10.4815 25.1067 10.3648C24.99 10.2481 24.8317 10.1825 24.6667 10.1825Z" fill="white"/>
<path d="M28.4461 4.61913C28.4461 4.45519 28.3809 4.29796 28.265 4.18203C28.1491 4.0661 27.9919 4.00098 27.8279 4.00098L7.22137 4.03002H4.10986C3.95226 4.03196 3.80136 4.09403 3.688 4.20353C3.57464 4.31303 3.50739 4.4617 3.5 4.61913V29.0964C3.5 29.1779 3.51612 29.2586 3.54745 29.3339C3.57877 29.4092 3.62468 29.4775 3.68252 29.535C3.74036 29.5924 3.80899 29.6379 3.88447 29.6687C3.95995 29.6995 4.04078 29.7151 4.1223 29.7145L27.8818 29.6814C28.0399 29.6806 28.1917 29.6197 28.3066 29.5111C28.4214 29.4024 28.4905 29.2542 28.5 29.0964L28.4461 4.61913ZM4.74046 5.25388H6.60322L6.64471 28.4865H4.74046V5.25388ZM7.88102 28.4865L7.84368 5.25388L27.2222 5.22484L27.2595 28.4575L7.88102 28.4865Z" fill="white"/>
<path d="M12.9673 8.44422C12.2539 8.4434 11.5563 8.65424 10.9628 9.05007C10.3693 9.4459 9.90652 10.0089 9.63314 10.6679C9.35975 11.3268 9.28801 12.052 9.42698 12.7517C9.56596 13.4515 9.90941 14.0942 10.4139 14.5987C10.9183 15.1031 11.5611 15.4466 12.2608 15.5856C12.9605 15.7245 13.6858 15.6528 14.3447 15.3794C15.0036 15.106 15.5666 14.6433 15.9625 14.0498C16.3583 13.4563 16.5692 12.7587 16.5683 12.0453C16.5672 11.0906 16.1875 10.1752 15.5124 9.50016C14.8373 8.82506 13.922 8.44531 12.9673 8.44422ZM12.9673 14.41C12.5915 14.4118 12.2208 14.324 11.8858 14.1539C11.5507 13.9837 11.261 13.7363 11.0407 13.4319C10.8204 13.1275 10.6758 12.775 10.6189 12.4036C10.5619 12.0322 10.5943 11.6526 10.7133 11.2962C10.8324 10.9398 11.0346 10.6169 11.3033 10.3543C11.572 10.0916 11.8994 9.89676 12.2584 9.78587C12.6174 9.67499 12.9977 9.65124 13.3677 9.71661C13.7377 9.78198 14.0868 9.93459 14.3861 10.1618L12.8013 12.0868L12.4528 11.7341C12.3363 11.6189 12.179 11.5542 12.0151 11.5542C11.8512 11.5542 11.694 11.6189 11.5775 11.7341C11.5194 11.7913 11.4733 11.8594 11.4418 11.9345C11.4103 12.0097 11.3941 12.0903 11.3941 12.1718C11.3941 12.2533 11.4103 12.3339 11.4418 12.4091C11.4733 12.4842 11.5194 12.5524 11.5775 12.6095L12.4072 13.4392C12.5174 13.5504 12.6657 13.6157 12.8221 13.6218H12.8511C12.9372 13.6173 13.0214 13.5951 13.0985 13.5565C13.1756 13.518 13.2439 13.4639 13.2992 13.3978L15.1702 11.1699C15.2852 11.4474 15.3444 11.7449 15.3445 12.0453C15.3445 12.3569 15.2829 12.6654 15.1633 12.9531C15.0437 13.2408 14.8684 13.5021 14.6475 13.7218C14.4265 13.9416 14.1644 14.1155 13.876 14.2336C13.5877 14.3517 13.2789 14.4117 12.9673 14.41Z" fill="white"/>
<path d="M12.9673 17.5713C12.2539 17.5705 11.5563 17.7813 10.9628 18.1772C10.3693 18.573 9.90652 19.136 9.63314 19.7949C9.35975 20.4539 9.28801 21.1791 9.42698 21.8788C9.56596 22.5786 9.90941 23.2213 10.4139 23.7258C10.9183 24.2302 11.5611 24.5737 12.2608 24.7126C12.9605 24.8516 13.6858 24.7799 14.3447 24.5065C15.0036 24.2331 15.5666 23.7704 15.9625 23.1769C16.3583 22.5834 16.5692 21.8857 16.5683 21.1724C16.5672 20.2176 16.1875 19.3023 15.5124 18.6272C14.8373 17.9521 13.922 17.5724 12.9673 17.5713ZM15.332 21.1724C15.331 21.5417 15.2429 21.9056 15.0748 22.2344L11.8181 19.1105C12.169 18.9136 12.5649 18.8107 12.9673 18.8117C13.5937 18.8117 14.1946 19.0603 14.6379 19.5029C15.0813 19.9455 15.3309 20.5459 15.332 21.1724ZM10.6067 21.1724C10.604 20.7495 10.7158 20.3337 10.9303 19.9692L14.2492 23.1471C13.8681 23.3964 13.4226 23.529 12.9673 23.5288C12.3423 23.5277 11.7431 23.2792 11.3007 22.8377C10.8584 22.3961 10.6089 21.7974 10.6067 21.1724Z" fill="white"/>
</svg>
