<svg width="32" height="33" viewBox="0 0 32 33" fill="none" xmlns="http://www.w3.org/2000/svg">
<path d="M11.3133 12.1395C11.9682 12.1412 12.6089 11.9485 13.1542 11.5858C13.6996 11.2232 14.1251 10.7069 14.3769 10.1023C14.6287 9.49775 14.6954 8.83205 14.5686 8.18952C14.4419 7.54699 14.1274 6.9565 13.6649 6.49282C13.2024 6.02914 12.6127 5.7131 11.9705 5.58472C11.3283 5.45634 10.6624 5.52138 10.0572 5.77162C9.45195 6.02186 8.93457 6.44604 8.57055 6.99047C8.20652 7.5349 8.01221 8.17509 8.01221 8.83C8.01331 9.70594 8.36119 10.5458 8.97979 11.166C9.59838 11.7862 10.4374 12.1362 11.3133 12.1395ZM11.3133 6.77365C11.7207 6.77032 12.1199 6.88808 12.4603 7.112C12.8007 7.33592 13.0668 7.6559 13.2251 8.03135C13.3833 8.40679 13.4264 8.82077 13.349 9.22076C13.2716 9.62076 13.077 9.98874 12.7901 10.278C12.5032 10.5673 12.1369 10.7648 11.7375 10.8455C11.3382 10.9262 10.9239 10.8865 10.5471 10.7314C10.1704 10.5762 9.84824 10.3127 9.62153 9.97418C9.39482 9.63566 9.27378 9.23742 9.27377 8.83C9.27485 8.28786 9.48954 7.76799 9.87132 7.38306C10.2531 6.99814 10.7712 6.77918 11.3133 6.77365Z" fill="white"/>
<path d="M27.8735 17.2152H12.1039C11.9378 17.2152 11.7784 17.2812 11.6609 17.3987C11.5434 17.5162 11.4774 17.6756 11.4774 17.8418V23.3758H7.17121V18.031L7.46137 18.3842C7.52045 18.4552 7.59438 18.5123 7.67794 18.5515C7.76151 18.5907 7.85266 18.6112 7.94497 18.6113C8.0915 18.6118 8.23331 18.5596 8.34447 18.4641C8.47192 18.3576 8.55223 18.2052 8.56798 18.0399C8.58373 17.8745 8.53363 17.7097 8.42857 17.581L7.02824 15.899C6.97275 15.8313 6.90362 15.7761 6.82537 15.737C6.74711 15.6979 6.66148 15.6757 6.57407 15.6719C6.48647 15.6689 6.39918 15.6838 6.3175 15.7156C6.23582 15.7474 6.16145 15.7955 6.09889 15.8569L4.55557 17.4128C4.49759 17.4714 4.4517 17.5407 4.42053 17.617C4.38936 17.6933 4.37352 17.775 4.37391 17.8573C4.3743 17.9397 4.39091 18.0213 4.4228 18.0972C4.4547 18.1732 4.50124 18.2421 4.55978 18.3001C4.61831 18.3581 4.6877 18.404 4.76397 18.4352C4.84024 18.4663 4.9219 18.4822 5.0043 18.4818C5.08669 18.4814 5.1682 18.4648 5.24417 18.4329C5.32014 18.401 5.38909 18.3545 5.44708 18.2959L5.90965 17.8207V23.9898C5.90738 24.0747 5.92229 24.1593 5.9535 24.2383C5.98471 24.3174 6.03157 24.3893 6.09127 24.4498C6.15097 24.5103 6.22227 24.558 6.3009 24.5903C6.37953 24.6225 6.46387 24.6385 6.54884 24.6374H11.4774V29.1958C11.4774 29.362 11.5434 29.5214 11.6609 29.6389C11.7784 29.7564 11.9378 29.8224 12.1039 29.8224H27.8735C28.0397 29.8224 28.199 29.7564 28.3165 29.6389C28.434 29.5214 28.5001 29.362 28.5001 29.1958V17.8418C28.5001 17.6756 28.434 17.5162 28.3165 17.3987C28.199 17.2812 28.0397 17.2152 27.8735 17.2152ZM27.2469 18.4767V19.7383H12.7305V18.4767H27.2469ZM12.7305 28.5693V20.9999H27.2469V28.5693H12.7305Z" fill="white"/>
<path d="M15.468 22.2614C15.3018 22.2614 15.1425 22.3274 15.0249 22.4449C14.9074 22.5624 14.8414 22.7218 14.8414 22.888V26.2522C14.8414 26.4194 14.9079 26.5799 15.0262 26.6982C15.1445 26.8165 15.3049 26.8829 15.4722 26.8829C15.6395 26.8829 15.7999 26.8165 15.9182 26.6982C16.0365 26.5799 16.103 26.4194 16.103 26.2522V22.888C16.103 22.805 16.0865 22.7228 16.0545 22.6462C16.0225 22.5697 15.9756 22.5002 15.9165 22.4419C15.8574 22.3836 15.7874 22.3377 15.7104 22.3067C15.6334 22.2757 15.551 22.2603 15.468 22.2614Z" fill="white"/>
<path d="M17.6211 22.2615C17.4549 22.2615 17.2955 22.3275 17.178 22.445C17.0605 22.5625 16.9945 22.7219 16.9945 22.8881V26.2522C16.9945 26.4195 17.061 26.58 17.1793 26.6983C17.2976 26.8166 17.458 26.883 17.6253 26.883C17.7926 26.883 17.953 26.8166 18.0713 26.6983C18.1896 26.58 18.2561 26.4195 18.2561 26.2522V22.8881C18.2555 22.8052 18.2387 22.7233 18.2064 22.647C18.1742 22.5707 18.1273 22.5014 18.0683 22.4433C18.0094 22.3851 17.9395 22.3391 17.8628 22.3079C17.7861 22.2767 17.7039 22.2609 17.6211 22.2615Z" fill="white"/>
<path d="M24.8036 22.2615H19.7237C19.5576 22.2615 19.3982 22.3275 19.2807 22.445C19.1632 22.5625 19.0972 22.7219 19.0972 22.8881V26.2522C19.0972 26.4184 19.1632 26.5778 19.2807 26.6953C19.3982 26.8128 19.5576 26.8788 19.7237 26.8788H24.8036C24.9698 26.8788 25.1292 26.8128 25.2467 26.6953C25.3642 26.5778 25.4302 26.4184 25.4302 26.2522V22.8881C25.4302 22.7219 25.3642 22.5625 25.2467 22.445C25.1292 22.3275 24.9698 22.2615 24.8036 22.2615ZM24.1729 25.6256H20.3545V23.523H24.1729V25.6256Z" fill="white"/>
<path d="M11.3133 13.7669C15.1653 13.7669 18.2561 10.1462 18.8827 9.35143H23.7187V13.8426L23.4285 13.4894C23.322 13.3611 23.1689 13.2804 23.0029 13.265C22.8369 13.2497 22.6716 13.3008 22.5433 13.4074C22.4151 13.5139 22.3344 13.667 22.319 13.833C22.3036 13.999 22.3548 14.1643 22.4613 14.2926L23.8617 15.9746C23.9171 16.0423 23.9863 16.0975 24.0645 16.1366C24.1428 16.1757 24.2284 16.1979 24.3158 16.2017H24.3453C24.5123 16.2007 24.6723 16.1343 24.791 16.0167L26.3301 14.4608C26.3925 14.4035 26.4427 14.3342 26.4775 14.2571C26.5124 14.1799 26.5313 14.0965 26.533 14.0118C26.5347 13.9271 26.5192 13.843 26.4875 13.7645C26.4558 13.686 26.4086 13.6147 26.3485 13.555C26.2885 13.4952 26.217 13.4483 26.1383 13.4169C26.0597 13.3856 25.9755 13.3706 25.8908 13.3727C25.8062 13.3748 25.7228 13.3941 25.6458 13.4293C25.5688 13.4645 25.4998 13.515 25.4428 13.5777L24.976 14.0487V8.72486C24.9749 8.55829 24.908 8.39893 24.7898 8.28154C24.6716 8.16416 24.5118 8.09828 24.3453 8.09828H18.8785C18.8282 8.09216 18.7774 8.09216 18.7271 8.09828C17.8482 7.03436 14.913 3.89307 11.3091 3.89307C7.07865 3.89307 3.76495 8.27069 3.62617 8.45572C3.54432 8.56332 3.5 8.69479 3.5 8.82999C3.5 8.96518 3.54432 9.09665 3.62617 9.20425C3.76915 9.39349 7.08286 13.7669 11.3133 13.7669ZM11.3133 5.14622C14.257 5.14622 16.8263 7.82494 17.6884 8.82999C16.8474 9.83503 14.2612 12.5138 11.3133 12.5138C8.36545 12.5138 5.80448 9.83503 4.94241 8.82999C5.80027 7.81653 8.36965 5.14622 11.3133 5.14622Z" fill="white"/>
</svg>
