<svg width="32" height="33" viewBox="0 0 32 33" fill="none" xmlns="http://www.w3.org/2000/svg">
<path d="M21.7718 25.029C21.7707 24.8657 21.7051 24.7094 21.5892 24.5943C21.4734 24.4793 21.3167 24.4147 21.1534 24.4147H7.96081C7.7968 24.4147 7.63951 24.4798 7.52353 24.5958C7.40756 24.7118 7.34241 24.8691 7.34241 25.0331C7.34241 25.1971 7.40756 25.3544 7.52353 25.4704C7.63951 25.5863 7.7968 25.6515 7.96081 25.6515H21.1534C21.235 25.6515 21.3157 25.6353 21.391 25.604C21.4663 25.5727 21.5347 25.5268 21.5921 25.4689C21.6496 25.411 21.6951 25.3424 21.7259 25.2669C21.7568 25.1914 21.7724 25.1105 21.7718 25.029Z" fill="white"/>
<path d="M7.94421 20.5146C7.7802 20.5146 7.6229 20.5798 7.50693 20.6958C7.39096 20.8117 7.32581 20.969 7.32581 21.1331C7.32581 21.2971 7.39096 21.4544 7.50693 21.5703C7.6229 21.6863 7.7802 21.7515 7.94421 21.7515H11.6546C11.8186 21.7515 11.9759 21.6863 12.0919 21.5703C12.2079 21.4544 12.273 21.2971 12.273 21.1331C12.273 20.969 12.2079 20.8117 12.0919 20.6958C11.9759 20.5798 11.8186 20.5146 11.6546 20.5146H7.94421Z" fill="white"/>
<path d="M14.5901 21.7432H23.6105C23.6917 21.7432 23.7721 21.7272 23.8472 21.6961C23.9222 21.665 23.9904 21.6195 24.0478 21.562C24.1052 21.5046 24.1508 21.4364 24.1818 21.3614C24.2129 21.2864 24.2289 21.206 24.2289 21.1248C24.2289 21.0435 24.2129 20.9631 24.1818 20.8881C24.1508 20.8131 24.1052 20.7449 24.0478 20.6875C23.9904 20.6301 23.9222 20.5845 23.8472 20.5534C23.7721 20.5223 23.6917 20.5063 23.6105 20.5063H14.5901C14.5089 20.5063 14.4285 20.5223 14.3534 20.5534C14.2784 20.5845 14.2102 20.6301 14.1528 20.6875C14.0954 20.7449 14.0498 20.8131 14.0188 20.8881C13.9877 20.9631 13.9717 21.0435 13.9717 21.1248C13.9717 21.206 13.9877 21.2864 14.0188 21.3614C14.0498 21.4364 14.0954 21.5046 14.1528 21.562C14.2102 21.6195 14.2784 21.665 14.3534 21.6961C14.4285 21.7272 14.5089 21.7432 14.5901 21.7432Z" fill="white"/>
<path d="M18.6591 17.2289C18.6591 17.0688 18.5967 16.915 18.485 16.8003C18.3734 16.6855 18.2213 16.6189 18.0613 16.6146H7.94421C7.7802 16.6146 7.6229 16.6798 7.50693 16.7957C7.39096 16.9117 7.32581 17.069 7.32581 17.233C7.32581 17.397 7.39096 17.5543 7.50693 17.6703C7.6229 17.7863 7.7802 17.8514 7.94421 17.8514H18.0613C18.2228 17.8471 18.376 17.7794 18.4879 17.6628C18.5998 17.5463 18.6613 17.3904 18.6591 17.2289Z" fill="white"/>
<path d="M23.6104 16.6146H20.5349C20.3709 16.6146 20.2136 16.6798 20.0976 16.7957C19.9817 16.9117 19.9165 17.069 19.9165 17.233C19.9165 17.397 19.9817 17.5543 20.0976 17.6703C20.2136 17.7863 20.3709 17.8514 20.5349 17.8514H23.6269C23.7081 17.8514 23.7885 17.8354 23.8636 17.8044C23.9386 17.7733 24.0068 17.7277 24.0642 17.6703C24.1216 17.6129 24.1672 17.5447 24.1983 17.4697C24.2293 17.3947 24.2453 17.3142 24.2453 17.233C24.2453 17.1518 24.2293 17.0714 24.1983 16.9964C24.1672 16.9213 24.1216 16.8532 24.0642 16.7957C24.0068 16.7383 23.9386 16.6928 23.8636 16.6617C23.7885 16.6306 23.7081 16.6146 23.6269 16.6146H23.6104Z" fill="white"/>
<path d="M23.5816 12.7145H7.94421C7.863 12.7145 7.78258 12.7305 7.70756 12.7616C7.63253 12.7926 7.56436 12.8382 7.50693 12.8956C7.44951 12.953 7.40396 13.0212 7.37288 13.0962C7.3418 13.1713 7.32581 13.2517 7.32581 13.3329C7.32581 13.4141 7.3418 13.4945 7.37288 13.5695C7.40396 13.6446 7.44951 13.7127 7.50693 13.7702C7.56436 13.8276 7.63253 13.8731 7.70756 13.9042C7.78258 13.9353 7.863 13.9513 7.94421 13.9513H23.5816C23.6628 13.9513 23.7432 13.9353 23.8182 13.9042C23.8932 13.8731 23.9614 13.8276 24.0188 13.7702C24.0763 13.7127 24.1218 13.6446 24.1529 13.5695C24.184 13.4945 24.2 13.4141 24.2 13.3329C24.2 13.2517 24.184 13.1713 24.1529 13.0962C24.1218 13.0212 24.0763 12.953 24.0188 12.8956C23.9614 12.8382 23.8932 12.7926 23.8182 12.7616C23.7432 12.7305 23.6628 12.7145 23.5816 12.7145Z" fill="white"/>
<path d="M24.5669 23.9323L23.1157 23.0171C23.0464 22.974 22.9693 22.9451 22.8888 22.9318C22.8083 22.9186 22.726 22.9213 22.6466 22.9399C22.5671 22.9585 22.4921 22.9925 22.4258 23.04C22.3596 23.0876 22.3033 23.1477 22.2602 23.217C22.2172 23.2863 22.1882 23.3634 22.175 23.4439C22.1617 23.5244 22.1645 23.6067 22.1831 23.6862C22.2016 23.7656 22.2357 23.8406 22.2832 23.9069C22.3308 23.9732 22.3909 24.0295 22.4602 24.0725L23.9073 24.9919C23.9177 24.9962 23.9265 25.0037 23.9324 25.0133C23.9384 25.0229 23.9411 25.0342 23.9402 25.0454C23.94 25.057 23.9368 25.0684 23.931 25.0785C23.9253 25.0885 23.9171 25.097 23.9073 25.1032L22.4602 26.0184C22.3475 26.0896 22.2609 26.1955 22.2137 26.3201C22.1664 26.4448 22.161 26.5814 22.1982 26.7094C22.2355 26.8375 22.3134 26.9499 22.4201 27.0297C22.5269 27.1096 22.6567 27.1526 22.79 27.1521C22.9056 27.1534 23.0189 27.1204 23.1157 27.0573L24.5669 26.1338C24.7516 26.0166 24.9038 25.8547 25.0092 25.663C25.1146 25.4712 25.1699 25.256 25.1699 25.0372C25.1699 24.8184 25.1146 24.6032 25.0092 24.4114C24.9038 24.2197 24.7516 24.0578 24.5669 23.9406V23.9323Z" fill="white"/>
<path d="M10.1293 9.42876C10.1276 9.51046 10.1423 9.59167 10.1724 9.66764C10.2026 9.7436 10.2476 9.81278 10.3048 9.87114C10.362 9.9295 10.4302 9.97585 10.5056 10.0075C10.5809 10.0391 10.6618 10.0554 10.7436 10.0554H19.5208C19.6848 10.0554 19.8421 9.99026 19.958 9.87428C20.074 9.75831 20.1392 9.60102 20.1392 9.43701C20.1392 9.273 20.074 9.1157 19.958 8.99973C19.8421 8.88376 19.6848 8.8186 19.5208 8.8186H10.7436C10.5813 8.8186 10.4257 8.88275 10.3106 8.99706C10.1956 9.11137 10.1304 9.26656 10.1293 9.42876Z" fill="white"/>
<path d="M8.88426 11.4406C8.98222 11.5012 9.0948 11.534 9.20995 11.5354C9.31443 11.5351 9.41715 11.5085 9.50865 11.4581C9.60016 11.4077 9.67749 11.335 9.73353 11.2469C9.7767 11.1788 9.80593 11.1028 9.81955 11.0233C9.83317 10.9438 9.83091 10.8625 9.81289 10.7839C9.79488 10.7053 9.76146 10.631 9.71458 10.5654C9.6677 10.4999 9.60829 10.4442 9.53977 10.4017L8.09271 9.48234C8.08226 9.47803 8.07344 9.47052 8.06752 9.4609C8.0616 9.45127 8.05887 9.44002 8.05972 9.42875C8.05916 9.41699 8.06196 9.40531 8.0678 9.39508C8.07364 9.38486 8.08228 9.37651 8.09271 9.37103L9.53977 8.45579C9.60926 8.41336 9.66962 8.35753 9.71734 8.29155C9.76506 8.22558 9.79919 8.15077 9.81774 8.07149C9.83629 7.99221 9.83889 7.91003 9.8254 7.82973C9.8119 7.74943 9.78258 7.67262 9.73913 7.60375C9.69568 7.53489 9.63897 7.47535 9.57231 7.4286C9.50564 7.38185 9.43034 7.34882 9.3508 7.33143C9.27125 7.31404 9.18904 7.31264 9.10895 7.32731C9.02886 7.34198 8.95248 7.37243 8.88426 7.41688L7.43308 8.33211C7.24829 8.4488 7.09605 8.61037 6.99054 8.80176C6.88504 8.99315 6.82971 9.20814 6.82971 9.42669C6.82971 9.64523 6.88504 9.86022 6.99054 10.0516C7.09605 10.243 7.24829 10.4046 7.43308 10.5213L8.88426 11.4406Z" fill="white"/>
<path d="M23.0086 7.84972L21.3595 10.3233C21.27 10.4597 21.238 10.6258 21.2704 10.7857C21.3028 10.9455 21.3971 11.0861 21.5327 11.1767C21.6 11.2216 21.6755 11.2527 21.7549 11.2683C21.8343 11.2838 21.916 11.2836 21.9953 11.2675C22.0746 11.2514 22.15 11.2198 22.217 11.1745C22.2841 11.1292 22.3415 11.0711 22.3861 11.0036L24.0351 8.52996C24.1253 8.39383 24.1578 8.22744 24.1253 8.0674C24.0928 7.90736 23.9981 7.76677 23.862 7.67656C23.7258 7.58636 23.5595 7.55392 23.3994 7.5864C23.2394 7.61887 23.0988 7.71359 23.0086 7.84972Z" fill="white"/>
<path d="M5.7716 28.4055H4.73681V27.3707C4.73681 27.2067 4.67165 27.0494 4.55568 26.9334C4.43971 26.8175 4.28241 26.7523 4.1184 26.7523C3.95439 26.7523 3.7971 26.8175 3.68113 26.9334C3.56515 27.0494 3.5 27.2067 3.5 27.3707V29.0198C3.5 29.1827 3.56472 29.339 3.67992 29.4542C3.79512 29.5694 3.95136 29.6341 4.11428 29.6341H5.76335C5.92737 29.6341 6.08466 29.5689 6.20063 29.453C6.3166 29.337 6.38176 29.1797 6.38176 29.0157C6.38176 28.8517 6.3166 28.6944 6.20063 28.5784C6.08466 28.4624 5.92737 28.3973 5.76335 28.3973L5.7716 28.4055Z" fill="white"/>
<path d="M23.3054 28.4055H20.3824C20.2184 28.4055 20.0611 28.4707 19.9452 28.5866C19.8292 28.7026 19.764 28.8599 19.764 29.0239C19.764 29.1879 19.8292 29.3452 19.9452 29.4612C20.0611 29.5772 20.2184 29.6423 20.3824 29.6423H23.3054C23.4694 29.6423 23.6267 29.5772 23.7427 29.4612C23.8587 29.3452 23.9238 29.1879 23.9238 29.0239C23.9238 28.8599 23.8587 28.7026 23.7427 28.5866C23.6267 28.4707 23.4694 28.4055 23.3054 28.4055Z" fill="white"/>
<path d="M17.4594 28.4055H14.5405C14.3765 28.4055 14.2192 28.4707 14.1032 28.5866C13.9873 28.7026 13.9221 28.8599 13.9221 29.0239C13.9221 29.1879 13.9873 29.3452 14.1032 29.4612C14.2192 29.5772 14.3765 29.6423 14.5405 29.6423H17.4594C17.6234 29.6423 17.7807 29.5772 17.8967 29.4612C18.0126 29.3452 18.0778 29.1879 18.0778 29.0239C18.0778 28.8599 18.0126 28.7026 17.8967 28.5866C17.7807 28.4707 17.6234 28.4055 17.4594 28.4055Z" fill="white"/>
<path d="M11.6176 28.4055H8.69457C8.53056 28.4055 8.37327 28.4707 8.2573 28.5866C8.14132 28.7026 8.07617 28.8599 8.07617 29.0239C8.07617 29.1879 8.14132 29.3452 8.2573 29.4612C8.37327 29.5772 8.53056 29.6423 8.69457 29.6423H11.6176C11.7816 29.6423 11.9389 29.5772 12.0548 29.4612C12.1708 29.3452 12.236 29.1879 12.236 29.0239C12.236 28.8599 12.1708 28.7026 12.0548 28.5866C11.9389 28.4707 11.7816 28.4055 11.6176 28.4055Z" fill="white"/>
<path d="M27.8775 26.7563C27.7145 26.7563 27.5583 26.8211 27.4431 26.9363C27.3279 27.0515 27.2632 27.2077 27.2632 27.3706V28.4054H26.2284C26.0644 28.4054 25.9071 28.4706 25.7911 28.5865C25.6751 28.7025 25.61 28.8598 25.61 29.0238C25.61 29.1878 25.6751 29.3451 25.7911 29.4611C25.9071 29.5771 26.0644 29.6422 26.2284 29.6422H27.8775C27.9588 29.6422 28.0394 29.6261 28.1145 29.5947C28.1895 29.5633 28.2576 29.5173 28.3148 29.4594C28.3719 29.4015 28.417 29.3328 28.4474 29.2573C28.4778 29.1818 28.4928 29.1011 28.4917 29.0197V27.3706C28.4917 27.2077 28.427 27.0515 28.3118 26.9363C28.1966 26.8211 28.0404 26.7563 27.8775 26.7563Z" fill="white"/>
<path d="M27.8775 20.7496C27.7968 20.7496 27.7169 20.7655 27.6424 20.7964C27.5679 20.8273 27.5001 20.8725 27.4431 20.9296C27.3861 20.9866 27.3408 21.0543 27.3099 21.1288C27.2791 21.2034 27.2632 21.2832 27.2632 21.3639V24.3652C27.2632 24.5292 27.3283 24.6865 27.4443 24.8025C27.5603 24.9185 27.7176 24.9836 27.8816 24.9836C28.0456 24.9836 28.2029 24.9185 28.3189 24.8025C28.4348 24.6865 28.5 24.5292 28.5 24.3652V21.3639C28.5006 21.2824 28.4848 21.2016 28.4536 21.1263C28.4224 21.0509 28.3764 20.9826 28.3184 20.9254C28.2604 20.8681 28.1915 20.823 28.1157 20.7929C28.04 20.7627 27.959 20.748 27.8775 20.7496Z" fill="white"/>
<path d="M27.8775 14.7387C27.7142 14.7398 27.5579 14.8054 27.4428 14.9213C27.3278 15.0371 27.2632 15.1938 27.2632 15.3571V18.3584C27.2632 18.5224 27.3283 18.6797 27.4443 18.7957C27.5603 18.9117 27.7176 18.9768 27.8816 18.9768C28.0456 18.9768 28.2029 18.9117 28.3189 18.7957C28.4348 18.6797 28.5 18.5224 28.5 18.3584V15.3571C28.5005 15.2754 28.4848 15.1944 28.4537 15.1188C28.4225 15.0433 28.3766 14.9747 28.3186 14.9171C28.2607 14.8595 28.1918 14.8141 28.116 14.7835C28.0403 14.7528 27.9592 14.7376 27.8775 14.7387Z" fill="white"/>
<path d="M27.8775 8.73199C27.7142 8.73308 27.5579 8.79871 27.4428 8.91457C27.3278 9.03042 27.2632 9.18709 27.2632 9.35039V12.3517C27.2632 12.5157 27.3283 12.673 27.4443 12.789C27.5603 12.905 27.7176 12.9701 27.8816 12.9701C28.0456 12.9701 28.2029 12.905 28.3189 12.789C28.4348 12.673 28.5 12.5157 28.5 12.3517V9.35039C28.5005 9.26868 28.4848 9.18768 28.4537 9.11213C28.4225 9.03658 28.3766 8.968 28.3186 8.91041C28.2607 8.85282 28.1918 8.80738 28.116 8.77674C28.0403 8.7461 27.9592 8.73089 27.8775 8.73199Z" fill="white"/>
<path d="M27.8775 4.0816H26.2284C26.0644 4.0816 25.9071 4.14675 25.7911 4.26272C25.6751 4.3787 25.61 4.53599 25.61 4.7C25.61 4.86401 25.6751 5.0213 25.7911 5.13728C25.9071 5.25325 26.0644 5.3184 26.2284 5.3184H27.2632V6.34495C27.2632 6.50896 27.3283 6.66626 27.4443 6.78223C27.5603 6.8982 27.7176 6.96336 27.8816 6.96336C28.0456 6.96336 28.2029 6.8982 28.3189 6.78223C28.4348 6.66626 28.5 6.50896 28.5 6.34495V4.69588C28.5 4.61451 28.4838 4.53395 28.4525 4.45888C28.4211 4.38381 28.3751 4.31573 28.3172 4.25858C28.2592 4.20143 28.1906 4.15635 28.1151 4.12597C28.0396 4.09559 27.9588 4.08051 27.8775 4.0816Z" fill="white"/>
<path d="M8.69457 5.31017H11.6176C11.7816 5.31017 11.9389 5.24502 12.0548 5.12904C12.1708 5.01307 12.236 4.85578 12.236 4.69177C12.236 4.52776 12.1708 4.37046 12.0548 4.25449C11.9389 4.13852 11.7816 4.07336 11.6176 4.07336H8.69457C8.53056 4.07336 8.37327 4.13852 8.2573 4.25449C8.14132 4.37046 8.07617 4.52776 8.07617 4.69177C8.07617 4.85578 8.14132 5.01307 8.2573 5.12904C8.37327 5.24502 8.53056 5.31017 8.69457 5.31017Z" fill="white"/>
<path d="M20.3824 5.31017H23.3054C23.4694 5.31017 23.6267 5.24502 23.7427 5.12904C23.8587 5.01307 23.9238 4.85578 23.9238 4.69177C23.9238 4.52776 23.8587 4.37046 23.7427 4.25449C23.6267 4.13852 23.4694 4.07336 23.3054 4.07336H20.3824C20.2184 4.07336 20.0611 4.13852 19.9452 4.25449C19.8292 4.37046 19.764 4.52776 19.764 4.69177C19.764 4.85578 19.8292 5.01307 19.9452 5.12904C20.0611 5.24502 20.2184 5.31017 20.3824 5.31017Z" fill="white"/>
<path d="M14.5405 5.31017H17.4594C17.6234 5.31017 17.7807 5.24502 17.8967 5.12904C18.0126 5.01307 18.0778 4.85578 18.0778 4.69177C18.0778 4.52776 18.0126 4.37046 17.8967 4.25449C17.7807 4.13852 17.6234 4.07336 17.4594 4.07336H14.5405C14.3765 4.07336 14.2192 4.13852 14.1032 4.25449C13.9873 4.37046 13.9221 4.52776 13.9221 4.69177C13.9221 4.85578 13.9873 5.01307 14.1032 5.12904C14.2192 5.24502 14.3765 5.31017 14.5405 5.31017Z" fill="white"/>
<path d="M5.77166 4.08161H4.12258C3.95966 4.08161 3.80342 4.14633 3.68822 4.26153C3.57302 4.37673 3.5083 4.53297 3.5083 4.69589V6.34496C3.5083 6.50898 3.57345 6.66627 3.68943 6.78224C3.8054 6.89821 3.96269 6.96337 4.1267 6.96337C4.29071 6.96337 4.44801 6.89821 4.56398 6.78224C4.67995 6.66627 4.74511 6.50898 4.74511 6.34496V5.31017H5.7799C5.94391 5.31017 6.1012 5.24502 6.21718 5.12904C6.33315 5.01307 6.3983 4.85578 6.3983 4.69177C6.3983 4.52776 6.33315 4.37046 6.21718 4.25449C6.1012 4.13852 5.94391 4.07336 5.7799 4.07336L5.77166 4.08161Z" fill="white"/>
<path d="M4.12254 24.9836C4.28583 24.9825 4.44207 24.9169 4.55715 24.801C4.67224 24.6852 4.73682 24.5285 4.73682 24.3652V21.3639C4.73682 21.1999 4.67167 21.0426 4.55569 20.9266C4.43972 20.8106 4.28243 20.7455 4.11842 20.7455C3.95441 20.7455 3.79711 20.8106 3.68114 20.9266C3.56517 21.0426 3.50001 21.1999 3.50001 21.3639V24.3652C3.49946 24.4469 3.51521 24.5279 3.54635 24.6035C3.57749 24.679 3.62339 24.7476 3.68136 24.8052C3.73934 24.8628 3.80822 24.9082 3.88397 24.9389C3.95973 24.9695 4.04083 24.9847 4.12254 24.9836Z" fill="white"/>
<path d="M4.12254 18.9769C4.28583 18.9758 4.44207 18.9102 4.55715 18.7943C4.67224 18.6785 4.73682 18.5218 4.73682 18.3585V15.3572C4.73682 15.1932 4.67167 15.0359 4.55569 14.9199C4.43972 14.8039 4.28243 14.7388 4.11842 14.7388C3.95441 14.7388 3.79711 14.8039 3.68114 14.9199C3.56517 15.0359 3.50001 15.1932 3.50001 15.3572V18.3585C3.49946 18.4402 3.51521 18.5212 3.54635 18.5968C3.57749 18.6723 3.62339 18.7409 3.68136 18.7985C3.73934 18.8561 3.80822 18.9015 3.88397 18.9321C3.95973 18.9628 4.04083 18.978 4.12254 18.9769Z" fill="white"/>
<path d="M4.12254 12.9661C4.28546 12.9661 4.4417 12.9013 4.5569 12.7861C4.6721 12.6709 4.73682 12.5147 4.73682 12.3518V9.35046C4.73682 9.18645 4.67167 9.02915 4.55569 8.91318C4.43972 8.79721 4.28243 8.73206 4.11842 8.73206C3.95441 8.73206 3.79711 8.79721 3.68114 8.91318C3.56517 9.02915 3.50001 9.18645 3.50001 9.35046V12.3518C3.49945 12.4333 3.51522 12.5141 3.54641 12.5894C3.5776 12.6648 3.62357 12.7331 3.6816 12.7903C3.73963 12.8476 3.80855 12.8927 3.88428 12.9228C3.96002 12.953 4.04103 12.9677 4.12254 12.9661Z" fill="white"/>
</svg>
