<svg width="32" height="33" viewBox="0 0 32 33" fill="none" xmlns="http://www.w3.org/2000/svg">
<path d="M22.8268 17.182C22.4095 17.1819 21.9935 17.229 21.5868 17.3226L20.3468 14.7391C21.0963 13.9399 21.5986 12.9408 21.7931 11.8625C21.9877 10.7842 21.8661 9.67262 21.4432 8.66182C21.0202 7.65102 20.3138 6.78416 19.4093 6.16576C18.5047 5.54735 17.4406 5.20381 16.3452 5.17656C15.2498 5.14931 14.17 5.43951 13.2358 6.01217C12.3016 6.58483 11.553 7.4155 11.0803 8.40401C10.6076 9.39253 10.4309 10.4967 10.5716 11.5834C10.7123 12.67 11.1643 13.6928 11.8731 14.5283L10.5298 17.3474C10.0901 17.2395 9.63913 17.1841 9.18639 17.182C8.11925 17.1807 7.07332 17.4801 6.16848 18.0458C5.26364 18.6116 4.53649 19.4208 4.07039 20.3808C3.60428 21.3407 3.41807 22.4126 3.53309 23.4736C3.64811 24.5345 4.05971 25.5415 4.72073 26.3793C5.38174 27.2171 6.26541 27.8517 7.27048 28.2104C8.27554 28.5691 9.36132 28.6373 10.4034 28.4073C11.4455 28.1773 12.4017 27.6584 13.1624 26.91C13.9231 26.1616 14.4576 25.214 14.7046 24.1759C14.7581 24.1924 14.8139 24.2008 14.8699 24.2007H17.3128C17.5663 25.2343 18.1053 26.1759 18.8684 26.9179C19.6315 27.6598 20.5878 28.1723 21.6282 28.3967C22.6686 28.6211 23.7511 28.5484 24.7521 28.187C25.7532 27.8255 26.6325 27.1898 27.2895 26.3525C27.9465 25.5152 28.3549 24.51 28.4679 23.4517C28.5809 22.3934 28.3941 21.3247 27.9287 20.3675C27.4633 19.4103 26.7382 18.6033 25.8361 18.0386C24.9339 17.4738 23.8912 17.1742 22.8268 17.1738V17.182ZM16.2133 6.435C17.0933 6.435 17.9535 6.69606 18.6851 7.18514C19.4167 7.67421 19.9868 8.36932 20.3231 9.1825C20.6595 9.99568 20.7471 10.8904 20.5748 11.7533C20.4025 12.6163 19.9781 13.4088 19.3553 14.0305C18.7325 14.6522 17.9392 15.0751 17.0759 15.2458C16.2126 15.4165 15.3181 15.3272 14.5055 14.9893C13.693 14.6514 12.9989 14.0801 12.5112 13.3476C12.0235 12.6151 11.764 11.7544 11.7657 10.8743C11.7679 9.69544 12.2372 8.56544 13.0708 7.73182C13.9044 6.89821 15.0344 6.42892 16.2133 6.42673V6.435ZM9.18639 27.3173C8.30709 27.3173 7.44752 27.0566 6.71629 26.5683C5.98507 26.08 5.415 25.3858 5.07813 24.5736C4.74126 23.7614 4.6527 22.8676 4.82364 22.005C4.99459 21.1425 5.41736 20.35 6.03855 19.7277C6.65973 19.1053 7.45144 18.6811 8.31365 18.5085C9.17586 18.336 10.0699 18.4229 10.8827 18.7582C11.6955 19.0936 12.3907 19.6624 12.8804 20.3927C13.3701 21.123 13.6324 21.9821 13.634 22.8614C13.6318 24.0403 13.1625 25.1703 12.3289 26.0039C11.4953 26.8376 10.3653 27.3068 9.18639 27.309V27.3173ZM14.8699 22.9771C14.8699 22.9399 14.8699 22.9069 14.8699 22.8697C14.8691 21.8101 14.5717 20.772 14.0114 19.8727C13.4511 18.9735 12.6503 18.249 11.6995 17.7814L12.8156 15.4212C13.7589 16.1304 14.9002 16.5272 16.08 16.5561C17.2598 16.585 18.4192 16.2446 19.3961 15.5824L20.417 17.7276C19.4414 18.1853 18.616 18.911 18.0371 19.82C17.4582 20.7289 17.1497 21.7838 17.1475 22.8614C17.1475 22.8986 17.1475 22.9317 17.1475 22.9689L14.8699 22.9771ZM22.8268 27.309C21.9472 27.309 21.0873 27.0482 20.3559 26.5595C19.6245 26.0708 19.0544 25.3761 18.7178 24.5634C18.3812 23.7507 18.2931 22.8565 18.4647 21.9937C18.6363 21.131 19.0599 20.3385 19.6819 19.7165C20.3039 19.0945 21.0964 18.6709 21.9592 18.4993C22.8219 18.3276 23.7162 18.4157 24.5289 18.7523C25.3416 19.089 26.0362 19.659 26.5249 20.3904C27.0136 21.1219 27.2745 21.9818 27.2745 22.8614C27.2723 24.0403 26.803 25.1703 25.9694 26.0039C25.1358 26.8376 24.0058 27.3068 22.8268 27.309Z" fill="white"/>
<path d="M21.8678 20.9393C21.8451 20.8787 21.8045 20.8264 21.7513 20.7895C21.6981 20.7526 21.635 20.7328 21.5702 20.7327H21.3264C21.2621 20.7324 21.1993 20.7517 21.1462 20.7878C21.093 20.824 21.0521 20.8754 21.0287 20.9352L19.8383 24.1014C19.8242 24.1267 19.8168 24.1552 19.8168 24.1841C19.8168 24.2131 19.8242 24.2415 19.8383 24.2668C19.854 24.2908 19.8755 24.3106 19.9007 24.3243C19.926 24.338 19.9542 24.3452 19.983 24.3453H20.3302C20.3674 24.3456 20.4038 24.3342 20.4342 24.3127C20.4646 24.2912 20.4875 24.2607 20.4997 24.2255L20.8221 23.3368H21.9753L22.277 24.2213C22.2885 24.2573 22.311 24.2887 22.3415 24.311C22.372 24.3333 22.4088 24.3453 22.4465 24.3453H22.8268C22.856 24.3448 22.8847 24.3375 22.9106 24.3238C22.9364 24.3102 22.9587 24.2906 22.9756 24.2668C22.9984 24.2463 23.0156 24.2204 23.0258 24.1915C23.0359 24.1626 23.0385 24.1316 23.0335 24.1014L21.8678 20.9393ZM21.7645 22.7167H21.0618L21.4256 21.7247L21.7645 22.7167Z" fill="white"/>
<path d="M25.617 23.8122C25.5964 23.8147 25.5766 23.8217 25.5591 23.8328C25.5569 23.8219 25.5569 23.8107 25.5591 23.7998V22.3861C25.5663 22.2628 25.5397 22.1399 25.4822 22.0306C25.4246 21.9214 25.3383 21.8299 25.2325 21.7661C24.999 21.6368 24.7346 21.574 24.4679 21.5842C24.2126 21.5789 23.9613 21.6478 23.7445 21.7826C23.6624 21.8327 23.5917 21.8994 23.5369 21.9784C23.4821 22.0574 23.4444 22.147 23.4262 22.2414L23.389 22.3985H23.6825C23.8024 22.3985 23.947 22.3985 23.9966 22.3985H24.0545L24.0876 22.3489C24.0991 22.3342 24.1075 22.3173 24.1124 22.2993C24.1585 22.2576 24.2129 22.2262 24.272 22.2069C24.3311 22.1877 24.3936 22.1811 24.4555 22.1877C24.5817 22.1785 24.708 22.2058 24.8192 22.2662C24.8514 22.2875 24.8769 22.3174 24.893 22.3525C24.9091 22.3875 24.915 22.4264 24.9101 22.4646C24.9164 22.5002 24.9164 22.5366 24.9101 22.5721C24.9101 22.5721 24.9101 22.6134 24.8151 22.6217L24.1578 22.7044C23.9281 22.7256 23.7104 22.8164 23.5337 22.9648C23.4476 23.0426 23.3799 23.1386 23.3356 23.2459C23.2913 23.3531 23.2714 23.4689 23.2774 23.5848C23.2756 23.698 23.2971 23.8103 23.3404 23.9148C23.3838 24.0193 23.4482 24.1138 23.5296 24.1924C23.7037 24.356 23.9356 24.4437 24.1744 24.4363C24.3755 24.4384 24.5741 24.3916 24.7531 24.2999C24.8387 24.2568 24.9191 24.2041 24.9928 24.1428C24.9928 24.1635 24.9928 24.18 25.0217 24.1966C25.0662 24.2645 25.1279 24.3194 25.2005 24.3557C25.2731 24.3921 25.3541 24.4084 25.4351 24.4032H25.5922L25.7534 24.3619L25.8443 24.3371V23.7791L25.6996 23.8039L25.617 23.8122ZM24.8936 23.2748C24.8956 23.3781 24.8673 23.4797 24.8122 23.5671C24.7571 23.6546 24.6777 23.7239 24.5836 23.7667C24.498 23.8156 24.4011 23.8414 24.3025 23.8414C24.2039 23.8414 24.107 23.8156 24.0214 23.7667C23.9934 23.7449 23.9711 23.7165 23.9567 23.6841C23.9423 23.6516 23.9361 23.6161 23.9388 23.5807C23.9353 23.5333 23.9455 23.4858 23.9682 23.4441C23.991 23.4023 24.0252 23.3679 24.0669 23.3451C24.1602 23.3041 24.2591 23.2776 24.3604 23.2665L24.6043 23.2335C24.6897 23.2249 24.7741 23.2083 24.8564 23.1839H24.8936V23.2748Z" fill="white"/>
<path d="M11.0465 20.4392C10.993 20.3449 10.9155 20.2665 10.8218 20.212C10.7281 20.1576 10.6216 20.129 10.5132 20.1292H7.94223C7.83386 20.129 7.72738 20.1576 7.63369 20.212C7.54 20.2665 7.46247 20.3449 7.40901 20.4392L6.12764 22.6588C6.07276 22.7522 6.04382 22.8585 6.04382 22.9668C6.04382 23.0751 6.07276 23.1814 6.12764 23.2747L7.40901 25.4944C7.46311 25.5881 7.54079 25.666 7.63434 25.7204C7.72788 25.7748 7.83403 25.8038 7.94223 25.8044H10.5091C10.618 25.8045 10.725 25.7759 10.8194 25.7214C10.9137 25.667 10.992 25.5887 11.0465 25.4944L12.3237 23.2747C12.3766 23.1807 12.4043 23.0746 12.4043 22.9668C12.4043 22.8589 12.3766 22.7529 12.3237 22.6588L11.0465 20.4392ZM10.1536 24.5726H8.29771L7.37181 22.9688L8.29771 21.3692H10.1495L11.0754 22.9688L10.1536 24.5726Z" fill="white"/>
<path d="M14.6592 12.8213C14.7973 12.909 14.9646 12.9382 15.1243 12.9025C15.284 12.8669 15.423 12.7692 15.5107 12.6311C15.5984 12.493 15.6276 12.3257 15.5919 12.166C15.5563 12.0063 15.4586 11.8673 15.3205 11.7796L13.9399 10.9033V10.8455L15.3247 9.96916C15.393 9.92574 15.4522 9.86927 15.4988 9.80297C15.5454 9.73668 15.5784 9.66186 15.5961 9.5828C15.6137 9.50373 15.6156 9.42196 15.6017 9.34215C15.5877 9.26234 15.5582 9.18606 15.5148 9.11767C15.4714 9.04927 15.4149 8.9901 15.3486 8.94353C15.2823 8.89696 15.2075 8.86391 15.1284 8.84625C15.0494 8.82859 14.9676 8.82668 14.8878 8.84063C14.808 8.85458 14.7317 8.88411 14.6633 8.92753L13.2786 9.80383C13.0985 9.91844 12.9502 10.0766 12.8475 10.2638C12.7448 10.4509 12.6909 10.6609 12.6909 10.8744C12.6909 11.0879 12.7448 11.2979 12.8475 11.485C12.9502 11.6722 13.0985 11.8303 13.2786 11.945L14.6592 12.8213Z" fill="white"/>
<path d="M17.1061 11.7796C17.0376 11.823 16.9783 11.8794 16.9317 11.9457C16.885 12.012 16.8519 12.0868 16.8343 12.1659C16.8166 12.245 16.8147 12.3268 16.8287 12.4067C16.8428 12.4865 16.8724 12.5628 16.916 12.6311C17.0042 12.7686 17.1432 12.8657 17.3026 12.9013C17.4621 12.9369 17.6291 12.9081 17.7675 12.8213L19.1522 11.945C19.3323 11.8304 19.4805 11.6722 19.5833 11.485C19.686 11.2979 19.7398 11.0879 19.7398 10.8744C19.7398 10.6609 19.686 10.4509 19.5833 10.2638C19.4805 10.0766 19.3323 9.91844 19.1522 9.80383L17.7675 8.92753C17.6293 8.83983 17.462 8.81059 17.3023 8.84625C17.1426 8.88191 17.0037 8.97954 16.916 9.11767C16.8283 9.2558 16.799 9.42311 16.8347 9.5828C16.8703 9.74248 16.968 9.88146 17.1061 9.96917L18.4867 10.8455L18.8174 10.3246L18.4867 10.9033L17.1061 11.7796Z" fill="white"/>
</svg>
