<svg width="32" height="33" viewBox="0 0 32 33" fill="none" xmlns="http://www.w3.org/2000/svg">
<path d="M27.8841 4.04773H4.11591C3.95256 4.04773 3.7959 4.11262 3.68039 4.22812C3.56489 4.34363 3.5 4.50029 3.5 4.66364V29.0519C3.5 29.2152 3.56489 29.3719 3.68039 29.4874C3.7959 29.6029 3.95256 29.6678 4.11591 29.6678H27.8841C28.0474 29.6678 28.2041 29.6029 28.3196 29.4874C28.4351 29.3719 28.5 29.2152 28.5 29.0519V4.66364C28.5 4.50029 28.4351 4.34363 28.3196 4.22812C28.2041 4.11262 28.0474 4.04773 27.8841 4.04773ZM27.2682 5.28781V7.35461H4.73181V5.28781H27.2682ZM4.73181 28.436V8.59469H27.2682V28.436H4.73181Z" fill="white"/>
<path d="M7.42279 9.83477C7.25944 9.83477 7.10278 9.89966 6.98728 10.0152C6.87177 10.1307 6.80688 10.2873 6.80688 10.4507V26.1583C6.80688 26.3228 6.87221 26.4805 6.98849 26.5968C7.10477 26.7131 7.26248 26.7784 7.42692 26.7784C7.59137 26.7784 7.74908 26.7131 7.86536 26.5968C7.98164 26.4805 8.04696 26.3228 8.04696 26.1583V10.4507C8.04697 10.3691 8.03077 10.2883 7.9993 10.2131C7.96783 10.1378 7.92173 10.0695 7.86366 10.0122C7.80559 9.95492 7.73671 9.90972 7.66103 9.87926C7.58535 9.8488 7.50437 9.83368 7.42279 9.83477Z" fill="white"/>
<path d="M10.1509 16.0268H17.6989C17.7798 16.0268 17.8599 16.0109 17.9346 15.98C18.0093 15.949 18.0772 15.9036 18.1344 15.8465C18.1916 15.7893 18.237 15.7214 18.2679 15.6466C18.2989 15.5719 18.3148 15.4918 18.3148 15.4109V10.4506C18.3148 10.3697 18.2989 10.2897 18.2679 10.2149C18.237 10.1402 18.1916 10.0723 18.1344 10.0151C18.0772 9.95792 18.0093 9.91255 17.9346 9.8816C17.8599 9.85065 17.7798 9.83472 17.6989 9.83472H10.1509C10.0701 9.83472 9.98997 9.85065 9.91524 9.8816C9.84052 9.91255 9.77262 9.95792 9.71543 10.0151C9.65824 10.0723 9.61287 10.1402 9.58192 10.2149C9.55096 10.2897 9.53503 10.3697 9.53503 10.4506V15.4109C9.53503 15.4918 9.55096 15.5719 9.58192 15.6466C9.61287 15.7214 9.65824 15.7893 9.71543 15.8465C9.77262 15.9036 9.84052 15.949 9.91524 15.98C9.98997 16.0109 10.0701 16.0268 10.1509 16.0268ZM10.771 11.0665H17.083V14.7868H10.771V11.0665Z" fill="white"/>
<path d="M24.8666 14.795H20.3196C20.1552 14.795 19.9975 14.8604 19.8812 14.9767C19.7649 15.0929 19.6996 15.2506 19.6996 15.4151C19.6996 15.5795 19.7649 15.7372 19.8812 15.8535C19.9975 15.9698 20.1552 16.0351 20.3196 16.0351H24.8666C25.031 16.0351 25.1887 15.9698 25.305 15.8535C25.4213 15.7372 25.4866 15.5795 25.4866 15.4151C25.4866 15.2506 25.4213 15.0929 25.305 14.9767C25.1887 14.8604 25.031 14.795 24.8666 14.795Z" fill="white"/>
<path d="M24.8666 12.3149H20.3196C20.1552 12.3149 19.9975 12.3803 19.8812 12.4965C19.7649 12.6128 19.6996 12.7705 19.6996 12.935C19.6996 13.0994 19.7649 13.2571 19.8812 13.3734C19.9975 13.4897 20.1552 13.555 20.3196 13.555H24.8666C25.031 13.555 25.1887 13.4897 25.305 13.3734C25.4213 13.2571 25.4866 13.0994 25.4866 12.935C25.4866 12.7705 25.4213 12.6128 25.305 12.4965C25.1887 12.3803 25.031 12.3149 24.8666 12.3149Z" fill="white"/>
<path d="M24.8666 9.83472H20.3196C20.1552 9.83472 19.9975 9.90004 19.8812 10.0163C19.7649 10.1326 19.6996 10.2903 19.6996 10.4548C19.6996 10.6192 19.7649 10.7769 19.8812 10.8932C19.9975 11.0095 20.1552 11.0748 20.3196 11.0748H24.8666C25.031 11.0748 25.1887 11.0095 25.305 10.8932C25.4213 10.7769 25.4866 10.6192 25.4866 10.4548C25.4866 10.2903 25.4213 10.1326 25.305 10.0163C25.1887 9.90004 25.031 9.83472 24.8666 9.83472Z" fill="white"/>
<path d="M24.8665 17.6886H10.1509C9.98648 17.6886 9.82877 17.7539 9.71249 17.8702C9.59621 17.9865 9.53088 18.1442 9.53088 18.3086C9.53088 18.4731 9.59621 18.6308 9.71249 18.7471C9.82877 18.8634 9.98648 18.9287 10.1509 18.9287H24.8665C25.031 18.9287 25.1887 18.8634 25.305 18.7471C25.4212 18.6308 25.4866 18.4731 25.4866 18.3086C25.4866 18.1442 25.4212 17.9865 25.305 17.8702C25.1887 17.7539 25.031 17.6886 24.8665 17.6886Z" fill="white"/>
<path d="M24.8665 20.3713H10.1509C9.98648 20.3713 9.82877 20.4367 9.71249 20.5529C9.59621 20.6692 9.53088 20.8269 9.53088 20.9914C9.53088 21.1558 9.59621 21.3135 9.71249 21.4298C9.82877 21.5461 9.98648 21.6114 10.1509 21.6114H24.8665C25.031 21.6114 25.1887 21.5461 25.305 21.4298C25.4212 21.3135 25.4866 21.1558 25.4866 20.9914C25.4866 20.8269 25.4212 20.6692 25.305 20.5529C25.1887 20.4367 25.031 20.3713 24.8665 20.3713Z" fill="white"/>
<path d="M24.8665 23.0623H10.1509C9.98648 23.0623 9.82877 23.1276 9.71249 23.2439C9.59621 23.3601 9.53088 23.5179 9.53088 23.6823C9.53088 23.8467 9.59621 24.0045 9.71249 24.1207C9.82877 24.237 9.98648 24.3023 10.1509 24.3023H24.8665C25.031 24.3023 25.1887 24.237 25.305 24.1207C25.4212 24.0045 25.4866 23.8467 25.4866 23.6823C25.4866 23.5179 25.4212 23.3601 25.305 23.2439C25.1887 23.1276 25.031 23.0623 24.8665 23.0623Z" fill="white"/>
<path d="M24.8665 25.5425H10.1509C9.98648 25.5425 9.82877 25.6078 9.71249 25.7241C9.59621 25.8404 9.53088 25.9981 9.53088 26.1625C9.53088 26.327 9.59621 26.4847 9.71249 26.601C9.82877 26.7172 9.98648 26.7826 10.1509 26.7826H24.8665C25.031 26.7826 25.1887 26.7172 25.305 26.601C25.4212 26.4847 25.4866 26.327 25.4866 26.1625C25.4866 25.9981 25.4212 25.8404 25.305 25.7241C25.1887 25.6078 25.031 25.5425 24.8665 25.5425Z" fill="white"/>
</svg>
