<svg width="32" height="33" viewBox="0 0 32 33" fill="none" xmlns="http://www.w3.org/2000/svg">
<path d="M5.77615 4.05624H4.1238C3.96056 4.05624 3.804 4.12108 3.68858 4.23651C3.57315 4.35194 3.5083 4.50849 3.5083 4.67173V6.32408C3.5083 6.48842 3.57358 6.64602 3.68979 6.76222C3.80599 6.87843 3.96359 6.94371 4.12793 6.94371C4.29227 6.94371 4.44987 6.87843 4.56607 6.76222C4.68228 6.64602 4.74756 6.48842 4.74756 6.32408V5.28723H5.78441C5.94874 5.28723 6.10635 5.22195 6.22255 5.10575C6.33875 4.98955 6.40404 4.83194 6.40404 4.6676C6.40404 4.50327 6.33875 4.34566 6.22255 4.22946C6.10635 4.11326 5.94874 4.04797 5.78441 4.04797L5.77615 4.05624Z" fill="white"/>
<path d="M14.5377 5.28723H17.4624C17.6267 5.28723 17.7843 5.22195 17.9005 5.10575C18.0167 4.98954 18.082 4.83194 18.082 4.6676C18.082 4.50327 18.0167 4.34566 17.9005 4.22946C17.7843 4.11326 17.6267 4.04797 17.4624 4.04797H14.5377C14.3734 4.04797 14.2158 4.11326 14.0996 4.22946C13.9834 4.34566 13.9181 4.50327 13.9181 4.6676C13.9181 4.83194 13.9834 4.98954 14.0996 5.10575C14.2158 5.22195 14.3734 5.28723 14.5377 5.28723Z" fill="white"/>
<path d="M8.69666 5.28723H11.6172C11.7815 5.28723 11.9391 5.22195 12.0553 5.10575C12.1715 4.98954 12.2368 4.83194 12.2368 4.6676C12.2368 4.50327 12.1715 4.34566 12.0553 4.22946C11.9391 4.11326 11.7815 4.04797 11.6172 4.04797H8.69666C8.53232 4.04797 8.37472 4.11326 8.25851 4.22946C8.14231 4.34566 8.07703 4.50327 8.07703 4.6676C8.07703 4.83194 8.14231 4.98954 8.25851 5.10575C8.37472 5.22195 8.53232 5.28723 8.69666 5.28723Z" fill="white"/>
<path d="M23.3033 4.05627H20.3828C20.2185 4.05627 20.0609 4.12156 19.9447 4.23776C19.8285 4.35396 19.7632 4.51157 19.7632 4.6759C19.7632 4.84024 19.8285 4.99784 19.9447 5.11405C20.0609 5.23025 20.2185 5.29553 20.3828 5.29553H23.3033C23.3847 5.29553 23.4653 5.27951 23.5405 5.24837C23.6156 5.21723 23.6839 5.17159 23.7415 5.11405C23.799 5.05651 23.8447 4.9882 23.8758 4.91303C23.9069 4.83785 23.923 4.75727 23.923 4.6759C23.923 4.59453 23.9069 4.51396 23.8758 4.43878C23.8447 4.36361 23.799 4.2953 23.7415 4.23776C23.6839 4.18022 23.6156 4.13458 23.5405 4.10344C23.4653 4.0723 23.3847 4.05627 23.3033 4.05627Z" fill="white"/>
<path d="M27.8762 4.05621H26.2239C26.0595 4.05621 25.9019 4.12149 25.7857 4.23769C25.6695 4.3539 25.6042 4.5115 25.6042 4.67584C25.6042 4.84017 25.6695 4.99778 25.7857 5.11398C25.9019 5.23018 26.0595 5.29547 26.2239 5.29547H27.2607V6.32405C27.2607 6.48839 27.326 6.64599 27.4422 6.7622C27.5584 6.8784 27.716 6.94368 27.8804 6.94368C28.0447 6.94368 28.2023 6.8784 28.3185 6.7622C28.4347 6.64599 28.5 6.48839 28.5 6.32405V4.67171C28.5 4.59018 28.4838 4.50946 28.4524 4.43424C28.4209 4.35902 28.3748 4.2908 28.3168 4.23354C28.2588 4.17627 28.1899 4.13111 28.1143 4.10067C28.0387 4.07023 27.9577 4.05511 27.8762 4.05621Z" fill="white"/>
<path d="M27.8762 8.71583C27.7126 8.71692 27.5561 8.78269 27.4408 8.89877C27.3255 9.01486 27.2607 9.17184 27.2607 9.33546V12.3427C27.2607 12.5071 27.326 12.6647 27.4422 12.7809C27.5584 12.8971 27.716 12.9624 27.8804 12.9624C28.0447 12.9624 28.2023 12.8971 28.3185 12.7809C28.4347 12.6647 28.5 12.5071 28.5 12.3427V9.33546C28.5 9.25374 28.4838 9.17283 28.4524 9.09738C28.421 9.02194 28.375 8.95344 28.3171 8.89585C28.2591 8.83826 28.1903 8.7927 28.1146 8.76181C28.039 8.73091 27.958 8.71529 27.8762 8.71583Z" fill="white"/>
<path d="M27.8762 14.7345C27.7126 14.7356 27.5561 14.8014 27.4408 14.9175C27.3255 15.0335 27.2607 15.1905 27.2607 15.3541V18.3614C27.2607 18.5257 27.326 18.6834 27.4422 18.7996C27.5584 18.9158 27.716 18.981 27.8804 18.981C28.0447 18.981 28.2023 18.9158 28.3185 18.7996C28.4347 18.6834 28.5 18.5257 28.5 18.3614V15.3541C28.5 15.2724 28.4838 15.1915 28.4524 15.1161C28.421 15.0406 28.375 14.9721 28.3171 14.9145C28.2591 14.8569 28.1903 14.8114 28.1146 14.7805C28.039 14.7496 27.958 14.734 27.8762 14.7345Z" fill="white"/>
<path d="M27.8762 20.7574C27.7954 20.7574 27.7154 20.7733 27.6407 20.8042C27.566 20.8352 27.4982 20.8805 27.441 20.9377C27.3839 20.9948 27.3385 21.0627 27.3076 21.1373C27.2767 21.212 27.2607 21.2921 27.2607 21.3729V24.3801C27.2607 24.5445 27.326 24.7021 27.4422 24.8183C27.5584 24.9345 27.716 24.9998 27.8804 24.9998C28.0447 24.9998 28.2023 24.9345 28.3185 24.8183C28.4347 24.7021 28.5 24.5445 28.5 24.3801V21.3729C28.5 21.2914 28.4838 21.2106 28.4524 21.1354C28.4209 21.0602 28.3748 20.992 28.3168 20.9347C28.2588 20.8774 28.19 20.8323 28.1143 20.8018C28.0387 20.7714 27.9578 20.7563 27.8762 20.7574Z" fill="white"/>
<path d="M27.8762 26.776C27.713 26.776 27.5564 26.8408 27.441 26.9563C27.3256 27.0717 27.2607 27.2283 27.2607 27.3915V28.4283H26.2239C26.0595 28.4283 25.9019 28.4936 25.7857 28.6098C25.6695 28.726 25.6042 28.8836 25.6042 29.048C25.6042 29.2123 25.6695 29.3699 25.7857 29.4861C25.9019 29.6023 26.0595 29.6676 26.2239 29.6676H27.8762C27.9578 29.6676 28.0385 29.6514 28.1137 29.62C28.1889 29.5885 28.2571 29.5425 28.3144 29.4844C28.3717 29.4264 28.4168 29.3576 28.4473 29.2819C28.4777 29.2063 28.4928 29.1254 28.4917 29.0438V27.3915C28.4917 27.2283 28.4269 27.0717 28.3114 26.9563C28.196 26.8408 28.0395 26.776 27.8762 26.776Z" fill="white"/>
<path d="M23.3033 28.4283H20.3828C20.2185 28.4283 20.0609 28.4936 19.9447 28.6098C19.8285 28.726 19.7632 28.8836 19.7632 29.048C19.7632 29.2123 19.8285 29.3699 19.9447 29.4861C20.0609 29.6023 20.2185 29.6676 20.3828 29.6676H23.3033C23.4677 29.6676 23.6253 29.6023 23.7415 29.4861C23.8577 29.3699 23.923 29.2123 23.923 29.048C23.923 28.8836 23.8577 28.726 23.7415 28.6098C23.6253 28.4936 23.4677 28.4283 23.3033 28.4283Z" fill="white"/>
<path d="M11.6172 28.4283H8.69666C8.53232 28.4283 8.37472 28.4936 8.25851 28.6098C8.14231 28.726 8.07703 28.8836 8.07703 29.048C8.07703 29.2123 8.14231 29.3699 8.25851 29.4861C8.37472 29.6023 8.53232 29.6676 8.69666 29.6676H11.6172C11.7815 29.6676 11.9391 29.6023 12.0553 29.4861C12.1715 29.3699 12.2368 29.2123 12.2368 29.048C12.2368 28.8836 12.1715 28.726 12.0553 28.6098C11.9391 28.4936 11.7815 28.4283 11.6172 28.4283Z" fill="white"/>
<path d="M17.4624 28.4283H14.5377C14.3734 28.4283 14.2158 28.4936 14.0996 28.6098C13.9834 28.726 13.9181 28.8836 13.9181 29.048C13.9181 29.2123 13.9834 29.3699 14.0996 29.4861C14.2158 29.6023 14.3734 29.6676 14.5377 29.6676H17.4624C17.6267 29.6676 17.7843 29.6023 17.9005 29.4861C18.0167 29.3699 18.082 29.2123 18.082 29.048C18.082 28.8836 18.0167 28.726 17.9005 28.6098C17.7843 28.4936 17.6267 28.4283 17.4624 28.4283Z" fill="white"/>
<path d="M5.77611 28.4283H4.73926V27.3915C4.73926 27.2271 4.67398 27.0695 4.55777 26.9533C4.44157 26.8371 4.28397 26.7719 4.11963 26.7719C3.95529 26.7719 3.79769 26.8371 3.68149 26.9533C3.56528 27.0695 3.5 27.2271 3.5 27.3915V29.0438C3.5 29.2071 3.56485 29.3636 3.68028 29.479C3.7957 29.5945 3.95226 29.6593 4.1155 29.6593H5.76784C5.93218 29.6593 6.08979 29.594 6.20599 29.4778C6.32219 29.3616 6.38747 29.204 6.38747 29.0397C6.38747 28.8754 6.32219 28.7178 6.20599 28.6015C6.08979 28.4853 5.93218 28.4201 5.76784 28.4201L5.77611 28.4283Z" fill="white"/>
<path d="M4.12376 18.981C4.28738 18.9799 4.44393 18.9142 4.55924 18.7981C4.67455 18.682 4.73926 18.525 4.73926 18.3614V15.3541C4.73926 15.1898 4.67398 15.0322 4.55777 14.916C4.44157 14.7998 4.28397 14.7345 4.11963 14.7345C3.95529 14.7345 3.79769 14.7998 3.68149 14.916C3.56528 15.0322 3.5 15.1898 3.5 15.3541V18.3614C3.5 18.4431 3.51616 18.524 3.54756 18.5995C3.57896 18.6749 3.62497 18.7434 3.68294 18.801C3.74092 18.8586 3.80972 18.9042 3.88537 18.935C3.96102 18.9659 4.04204 18.9816 4.12376 18.981Z" fill="white"/>
<path d="M4.12376 12.9582C4.287 12.9582 4.44356 12.8934 4.55898 12.7779C4.67441 12.6625 4.73926 12.506 4.73926 12.3427V9.33545C4.73926 9.17111 4.67398 9.01351 4.55777 8.89731C4.44157 8.7811 4.28397 8.71582 4.11963 8.71582C3.95529 8.71582 3.79769 8.7811 3.68149 8.89731C3.56528 9.01351 3.5 9.17111 3.5 9.33545V12.3427C3.49999 12.4242 3.51618 12.505 3.54763 12.5802C3.57908 12.6554 3.62515 12.7236 3.68319 12.7809C3.74122 12.8382 3.81005 12.8833 3.88568 12.9138C3.96131 12.9442 4.04224 12.9593 4.12376 12.9582Z" fill="white"/>
<path d="M4.12376 24.9997C4.28738 24.9986 4.44393 24.9328 4.55924 24.8168C4.67455 24.7007 4.73926 24.5437 4.73926 24.3801V21.3728C4.73926 21.2085 4.67398 21.0509 4.55777 20.9347C4.44157 20.8185 4.28397 20.7532 4.11963 20.7532C3.95529 20.7532 3.79769 20.8185 3.68149 20.9347C3.56528 21.0509 3.5 21.2085 3.5 21.3728V24.3801C3.5 24.4618 3.51616 24.5427 3.54756 24.6182C3.57896 24.6936 3.62497 24.7621 3.68294 24.8197C3.74092 24.8773 3.80972 24.9228 3.88537 24.9537C3.96102 24.9846 4.04204 25.0002 4.12376 24.9997Z" fill="white"/>
<path d="M9.46493 21.4141C9.6928 21.8346 10.0308 22.1851 10.4427 22.4282C10.8545 22.6712 11.3248 22.7976 11.803 22.7938H20.0895C20.5644 22.7919 21.0301 22.6632 21.4386 22.4212C21.8472 22.1792 22.1837 21.8325 22.4136 21.417C22.6434 21.0015 22.7583 20.5322 22.7462 20.0575C22.7341 19.5828 22.5956 19.12 22.345 18.7167L18.2141 12.1651C17.9733 11.7855 17.6405 11.4728 17.2465 11.2562C16.8526 11.0396 16.4103 10.926 15.9607 10.926C15.5111 10.926 15.0689 11.0396 14.6749 11.2562C14.281 11.4728 13.9482 11.7855 13.7073 12.1651L9.54755 18.7167C9.29194 19.1171 9.14932 19.5792 9.13478 20.054C9.12024 20.5288 9.23431 20.9988 9.46493 21.4141ZM10.5885 19.3487L14.7194 12.7971C14.8488 12.5932 15.0275 12.4253 15.2391 12.309C15.4507 12.1927 15.6883 12.1317 15.9297 12.1317C16.1712 12.1317 16.4088 12.1927 16.6203 12.309C16.8319 12.4253 17.0107 12.5932 17.1401 12.7971L21.2709 19.3487C21.4077 19.5657 21.4837 19.8154 21.4911 20.0717C21.4984 20.3281 21.4369 20.5817 21.3128 20.8062C21.1888 21.0307 21.0068 21.2178 20.7858 21.3479C20.5648 21.4781 20.3129 21.5466 20.0565 21.5463H11.803C11.5465 21.5466 11.2947 21.4781 11.0737 21.3479C10.8527 21.2178 10.6707 21.0307 10.5467 20.8062C10.4226 20.5817 10.361 20.3281 10.3684 20.0717C10.3758 19.8154 10.4518 19.5657 10.5885 19.3487Z" fill="white"/>
</svg>
