<svg width="150" height="35" viewBox="0 0 150 35" fill="none" xmlns="http://www.w3.org/2000/svg">
<path d="M34.2416 33.5638L38.2951 18.4291H38.3431L42.3487 33.5638H44.0276L48.3929 16.8221H46.9058L43.2121 31.7889H43.1402L39.2306 16.8221H37.4797L33.5221 31.7889H33.4501L29.8763 16.8221H28.3413L32.5627 33.5638H34.2416Z" fill="white"/>
<path d="M55.3018 33.8516C58.5398 33.8516 60.6505 31.4531 60.6505 27.4236C60.6505 23.3941 58.5398 20.9955 55.3018 20.9955C52.0638 20.9955 49.9531 23.3941 49.9531 27.4236C49.9531 31.4531 52.0638 33.8516 55.3018 33.8516ZM55.3018 32.6284C52.9273 32.6284 51.4162 31.0454 51.4162 28.1911V26.6561C51.4162 23.7778 52.9273 22.2188 55.3018 22.2188C57.6763 22.2188 59.1874 23.8018 59.1874 26.6561V28.1911C59.1874 31.0693 57.6763 32.6284 55.3018 32.6284Z" fill="white"/>
<path d="M65.4908 33.5638V24.9291C65.4908 23.1062 67.0979 22.2188 68.8248 22.2188C70.8635 22.2188 71.9669 23.418 71.9669 25.9125V33.5638H73.334V25.6727C73.334 22.6745 71.799 20.9955 69.1846 20.9955C67.2178 20.9955 66.1145 21.9549 65.5628 23.2262H65.4908V21.2834H64.1237V33.5638H65.4908Z" fill="white"/>
<path d="M85.5779 33.5638H86.9451V15.8147H85.5779V23.2502H85.506C84.9063 21.883 83.6351 20.9955 81.7643 20.9955C78.6222 20.9955 76.7034 23.3701 76.7034 27.4236C76.7034 31.4771 78.6222 33.8516 81.7643 33.8516C83.6351 33.8516 84.8584 32.9642 85.506 31.597H85.5779V33.5638ZM82.0761 32.6284C79.6296 32.6284 78.1665 30.9254 78.1665 28.2871V26.5601C78.1665 23.9217 79.6296 22.2188 82.0761 22.2188C83.9709 22.2188 85.5779 23.3461 85.5779 24.9531V29.8221C85.5779 31.549 83.9709 32.6284 82.0761 32.6284Z" fill="white"/>
<path d="M95.8009 33.8516C98.1274 33.8516 99.8304 32.6524 100.598 30.8535L99.5905 30.1819C98.919 31.7889 97.6238 32.6524 95.8728 32.6524C93.3544 32.6524 91.8673 30.8535 91.8673 28.2871V27.6874H100.958V27.0398C100.958 23.442 98.919 20.9955 95.7769 20.9955C92.5149 20.9955 90.4282 23.3941 90.4282 27.4236C90.4282 31.4531 92.5149 33.8516 95.8009 33.8516ZM95.7769 22.1468C97.9835 22.1468 99.4706 23.8498 99.4706 26.4402V26.6321H91.8673V26.5121C91.8673 23.9217 93.4024 22.1468 95.7769 22.1468Z" fill="white"/>
<path d="M105.802 33.5638V25.169C105.802 23.5859 107.265 22.6265 109.304 22.6265H110.383V21.2834H109.568C107.457 21.2834 106.378 22.3387 105.898 23.49H105.802V21.2834H104.435V33.5638H105.802Z" fill="white"/>
<path d="M121.978 33.5638V32.2926H114.591V16.8221H113.152V33.5638H121.978Z" fill="#2BFEBA"/>
<path d="M134.6 33.5638V32.3645H132.945V25.097C132.945 22.5066 131.338 20.9955 128.484 20.9955C126.253 20.9955 124.886 22.0509 124.214 23.466L125.078 24.1856C125.749 22.9144 126.805 22.1948 128.436 22.1948C130.523 22.1948 131.578 23.2262 131.578 25.2409V26.68H128.748C125.198 26.68 123.759 28.0472 123.759 30.2299C123.759 32.5085 125.246 33.8516 127.812 33.8516C129.731 33.8516 130.978 32.9882 131.53 31.621H131.65V32.0527C131.722 32.9642 132.154 33.5638 133.209 33.5638H134.6ZM128.004 32.6763C126.325 32.6763 125.198 31.9088 125.198 30.4937V29.918C125.198 28.5509 126.253 27.7114 128.7 27.7114H131.578V29.99C131.578 31.645 129.995 32.6763 128.004 32.6763Z" fill="#2BFEBA"/>
<path d="M137.415 33.5638H138.782V31.597H138.854C139.525 32.9642 140.725 33.8516 142.595 33.8516C145.737 33.8516 147.656 31.4771 147.656 27.4236C147.656 23.3701 145.737 20.9955 142.595 20.9955C140.725 20.9955 139.453 21.883 138.854 23.2502H138.782V15.8147H137.415V33.5638ZM142.284 32.6284C140.389 32.6284 138.782 31.549 138.782 29.8221V24.9531C138.782 23.3461 140.389 22.2188 142.284 22.2188C144.73 22.2188 146.193 23.9217 146.193 26.5601V28.2871C146.193 30.9254 144.73 32.6284 142.284 32.6284Z" fill="#2BFEBA"/>
<path fill-rule="evenodd" clip-rule="evenodd" d="M12.1425 10.5456L12.1428 10.5451C12.3971 10.1405 12.2748 9.60093 11.8697 9.34544C11.73 9.25787 11.5709 9.21249 11.4094 9.21249C11.1037 9.21249 10.8331 9.36236 10.6713 9.61951C10.5458 9.81951 10.5073 10.0467 10.5597 10.2758L10.5599 10.2766C10.612 10.5051 10.7449 10.6932 10.9443 10.8189C11.0855 10.9072 11.2444 10.9522 11.4052 10.9522C11.7113 10.9522 11.9814 10.8021 12.1425 10.5456ZM10.1132 12.142C10.5019 12.3857 10.9485 12.5147 11.4052 12.5147C12.2483 12.5147 13.0185 12.0888 13.4658 11.3765C14.1792 10.2412 13.8367 8.73735 12.7014 8.0227C12.3133 7.77896 11.8661 7.64999 11.4094 7.64999C10.5663 7.64999 9.79608 8.07595 9.34824 8.78823C9.00275 9.33842 8.89153 9.98977 9.03647 10.624C9.18082 11.257 9.56299 11.7959 10.1132 12.142Z" fill="#F9FAFA"/>
<path fill-rule="evenodd" clip-rule="evenodd" d="M17.6186 4.6672L17.6187 4.66702C18.0193 4.02925 17.8254 3.18253 17.1892 2.78296L17.1882 2.78231C16.97 2.64504 16.72 2.57324 16.4643 2.57324C15.9853 2.57324 15.5576 2.81041 15.3053 3.2123L15.3045 3.21353C15.1088 3.5246 15.0476 3.88493 15.1294 4.24252L15.1297 4.24364C15.2112 4.60097 15.4229 4.90005 15.7347 5.09657C15.9554 5.23471 16.206 5.30626 16.4602 5.30626C16.9388 5.30626 17.3661 5.06939 17.6186 4.6672ZM14.9037 6.41974C14.2417 6.00325 13.7802 5.35367 13.6063 4.5911C13.4318 3.82853 13.5655 3.04348 13.982 2.38148C14.5209 1.52307 15.4491 1.01074 16.4643 1.01074C17.0145 1.01074 17.5528 1.16574 18.0202 1.45977C19.388 2.31877 19.8009 4.13025 18.9419 5.49802C18.403 6.35644 17.4753 6.86876 16.4602 6.86876C15.91 6.86876 15.3716 6.71317 14.9037 6.41974Z" fill="#D22DED"/>
<path fill-rule="evenodd" clip-rule="evenodd" d="M3.88054 28.2552C3.61129 28.8162 3.57683 29.4405 3.78352 30.0298C3.9906 30.6183 4.40778 31.0837 4.96946 31.3531C5.37422 31.5474 5.80702 31.6183 6.23064 31.57C6.39979 31.5507 6.57244 31.5115 6.74577 31.4511C7.33316 31.2439 7.79929 30.8261 8.0686 30.2659C8.06871 30.2657 8.06883 30.2654 8.06895 30.2652L14.0237 17.8318L9.8361 15.8218L3.88054 28.2552ZM2.47191 27.5791C2.02294 28.5144 1.96558 29.5683 2.30941 30.5479C2.65376 31.5269 3.35781 32.313 4.29376 32.7619C4.96143 33.0824 5.68923 33.2043 6.40752 33.1225C6.69554 33.0896 6.98216 33.0236 7.26275 32.9256C8.24111 32.5813 9.02835 31.8765 9.47738 30.9418L16.1073 17.0987L9.10246 13.7365L2.47191 27.5791Z" fill="white"/>
<path fill-rule="evenodd" clip-rule="evenodd" d="M19.39 14.0772C20.6845 14.0772 21.7338 13.0279 21.7338 11.7335C21.7338 10.4391 20.6845 9.38974 19.39 9.38974C18.0956 9.38974 17.0463 10.4391 17.0463 11.7335C17.0463 13.0279 18.0956 14.0772 19.39 14.0772ZM19.39 15.6397C21.5474 15.6397 23.2963 13.8909 23.2963 11.7335C23.2963 9.57613 21.5474 7.82724 19.39 7.82724C17.2327 7.82724 15.4838 9.57613 15.4838 11.7335C15.4838 13.8909 17.2327 15.6397 19.39 15.6397Z" fill="#2BFEBA"/>
</svg>
